<svg xmlns="http://www.w3.org/2000/svg" viewBox="0 0 120.69 22.07"><defs><style>.cls-1{fill:#fff;}</style></defs><title>logo-avante</title><g id="Camada_2" data-name="Camada 2"><g id="Background"><rect class="cls-1" y="11.14" width="18.13" height="3.53" rx="1.51" ry="1.51"/><rect class="cls-1" x="3.02" y="4.57" width="18.13" height="3.53" rx="1.51" ry="1.51"/><rect class="cls-1" x="3.02" y="17.72" width="18.13" height="3.01" rx="1.51" ry="1.51"/><path class="cls-1" d="M56.41,5q1,0,.72.87L51.56,21a.94.94,0,0,1-1,.64h-3a.94.94,0,0,1-1-.64L41,5.9q-.3-.87.76-.87H44.4a.94.94,0,0,1,1,.64l3.75,11.45h.08L53,5.66A.94.94,0,0,1,54,5Z"/><path class="cls-1" d="M86.2,11.12q0-3.35-3.07-3.35T80,11.12V20.9q0,.77-.87.77H76.77q-.87,0-.87-.77v-10a5.84,5.84,0,0,1,1.84-4.67,8,8,0,0,1,5.4-1.59,8,8,0,0,1,5.36,1.59,5.84,5.84,0,0,1,1.84,4.67v10q0,.77-.87.77H87.07q-.87,0-.87-.77Z"/><path class="cls-1" d="M119.12,18.94a4.17,4.17,0,0,0-2.6-.48,5.55,5.55,0,0,1-2.24.46,4.33,4.33,0,0,1-3-.87,3.76,3.76,0,0,1-.95-2.88V14.5h9.47q.87,0,.87-.77V11a6,6,0,0,0-1.86-4.74,9.73,9.73,0,0,0-10.76,0A6,6,0,0,0,106.21,11v4.45a6.06,6.06,0,0,0,2,5,9.17,9.17,0,0,0,5.91,1.64,10,10,0,0,0,3.09-.47,8,8,0,0,0,2.56-1.34.83.83,0,0,0,.34-.55A4.18,4.18,0,0,0,119.12,18.94Zm-8.78-7.69q0-3.48,3.22-3.48t3.18,3.48v.5h-6.4Z"/><path class="cls-1" d="M37.5,6.28A8.39,8.39,0,0,0,31.9,4.63,10.59,10.59,0,0,0,26.13,6.2a4.17,4.17,0,0,0,.59,2.15l.24.33a.81.81,0,0,0,1.21.17,7.37,7.37,0,0,1,1.57-.77,5.25,5.25,0,0,1,1.76-.3,4.05,4.05,0,0,1,2.88.87,3.85,3.85,0,0,1,.91,2.88v.17H31.78A8.3,8.3,0,0,0,26.7,13,4.45,4.45,0,0,0,25,16.78a4.62,4.62,0,0,0,1.8,3.93A8.62,8.62,0,0,0,32,22.07a8.23,8.23,0,0,0,5.53-1.64,5.9,5.9,0,0,0,1.89-4.72V11.25A6.19,6.19,0,0,0,37.5,6.28Zm-2.2,9.12a3.8,3.8,0,0,1-.8,2.66,3.27,3.27,0,0,1-2.5.85,3.54,3.54,0,0,1-2.16-.57,2,2,0,0,1-.76-1.67A1.93,1.93,0,0,1,29.94,15a4.22,4.22,0,0,1,2.41-.59h3Z"/><path class="cls-1" d="M70.93,6.28a8.39,8.39,0,0,0-5.61-1.66A10.62,10.62,0,0,0,59.7,6.11s0,.06,0,.09A4.18,4.18,0,0,0,60.76,9a.86.86,0,0,0,.85-.14,7.37,7.37,0,0,1,1.57-.77,5.25,5.25,0,0,1,1.76-.3,4.05,4.05,0,0,1,2.88.87,3.85,3.85,0,0,1,.91,2.88v.17H65.21A8.3,8.3,0,0,0,60.13,13a4.45,4.45,0,0,0-1.74,3.77,4.62,4.62,0,0,0,1.8,3.93,8.62,8.62,0,0,0,5.25,1.36A8.23,8.23,0,0,0,71,20.43a5.9,5.9,0,0,0,1.89-4.72V11.25A6.19,6.19,0,0,0,70.93,6.28Zm-2.2,9.12a3.8,3.8,0,0,1-.8,2.66,3.27,3.27,0,0,1-2.5.85,3.54,3.54,0,0,1-2.16-.57,2,2,0,0,1-.76-1.67A1.93,1.93,0,0,1,63.37,15a4.22,4.22,0,0,1,2.41-.59h3Z"/><path class="cls-1" d="M103.64,18.58a1.5,1.5,0,0,0-.42.07,4.85,4.85,0,0,1-1.55.27q-2.73,0-2.73-2.51V7.84h2.47a2.16,2.16,0,0,0,2.16-2.16V4.48H98.94V2.62A2.62,2.62,0,0,0,96.32,0H95a.24.24,0,0,0-.24.24V16.41q0,5.66,6.37,5.66a10.34,10.34,0,0,0,2.28-.23c.06-.12.12-.25.17-.38A4.17,4.17,0,0,0,103.64,18.58Z"/></g></g></svg>